<svg width="24" height="24" viewBox="0 0 24 24" fill="none" xmlns="http://www.w3.org/2000/svg">
<path fill-rule="evenodd" clip-rule="evenodd" d="M12.9143 1.97157C12.9143 1.43499 12.5049 1 12 1C11.4951 1 11.0857 1.43499 11.0857 1.97157V3.91471C11.0857 3.92281 11.0858 3.9309 11.086 3.93896C7.87355 4.4119 5.4 7.34194 5.4 10.8858V14.9338C5.4 15.3725 5.2134 15.7869 4.8924 16.0624C4.3254 16.5055 3.6606 17.0423 3.5274 17.1845C3.1896 17.5428 3 18.0293 3 18.5369C3 19.0444 3.1896 19.5309 3.5274 19.8892C3.8646 20.2482 4.3224 20.4496 4.8 20.4496H9.06C9.3384 21.904 10.5498 23 12 23C13.4502 23 14.6616 21.904 14.94 20.4496H19.2C19.6776 20.4496 20.1354 20.2482 20.4726 19.8892C20.8104 19.5309 21 19.0444 21 18.5369C21 18.0293 20.8104 17.5428 20.4726 17.1845C20.3388 17.0417 19.6704 16.5023 19.1118 16.063C18.792 15.7927 18.6024 15.375 18.6024 14.9332V14.9319C18.6 13.9698 18.6 12.4622 18.6 10.8892V10.8858C18.6 7.34194 16.1265 4.4119 12.914 3.93896C12.9142 3.9309 12.9143 3.92281 12.9143 3.91471V1.97157ZM12 21.7248C12.783 21.7248 13.4502 21.1924 13.6974 20.4496H10.3026C10.5498 21.1924 11.217 21.7248 12 21.7248ZM12 5.14743C14.9826 5.14743 17.4 7.71629 17.4 10.8858V10.8892C17.4 12.4634 17.4 13.973 17.4024 14.9351C17.4024 15.7684 17.763 16.5571 18.3804 17.0736L18.3948 17.0851C18.897 17.4797 19.5036 17.9579 19.6242 18.0861C19.737 18.2053 19.8 18.3679 19.8 18.5369C19.8 18.7058 19.737 18.8684 19.6242 18.9876C19.512 19.1075 19.359 19.1744 19.2 19.1744H4.8C4.641 19.1744 4.488 19.1075 4.3758 18.9876C4.263 18.8684 4.2 18.7058 4.2 18.5369C4.2 18.3679 4.263 18.2053 4.3758 18.0861C4.4958 17.9579 5.1024 17.4804 5.6052 17.0882C5.6106 17.0844 5.616 17.08 5.6214 17.0755C6.2394 16.559 6.6 15.7697 6.6 14.9338V10.8858C6.6 7.71629 9.0174 5.14743 12 5.14743Z" fill="black"/>
</svg>
