<svg width="24" height="24" viewBox="0 0 24 24" fill="none" xmlns="http://www.w3.org/2000/svg">
<path d="M22 11.9722C22.0036 13.3654 21.6781 14.7398 21.05 15.9833C20.3052 17.4735 19.1603 18.7269 17.7434 19.6031C16.3265 20.4794 14.6937 20.9438 13.0278 20.9444C11.7041 20.9479 10.3974 20.6542 9.20369 20.0862C9.08331 20.0289 8.94552 20.0182 8.81905 20.0603L3.94868 21.6838C3.5578 21.8141 3.18593 21.4422 3.31623 21.0513L4.93968 16.181C4.98184 16.0545 4.97112 15.9167 4.91383 15.7963C4.34578 14.6026 4.0521 13.2959 4.05555 11.9722C4.0562 10.3063 4.52064 8.67348 5.39687 7.2566C6.27309 5.83973 7.52648 4.69479 9.01666 3.95003C10.2602 3.3219 11.6346 2.9964 13.0278 3.00003H13.5555C15.7557 3.12141 17.8337 4.05005 19.3918 5.60815C20.9499 7.16626 21.8786 9.24432 22 11.4445V11.9722Z" stroke="black" stroke-width="1.2" stroke-linecap="round" stroke-linejoin="round"/>
</svg>
