<svg width="24" height="24" viewBox="0 0 24 24" fill="none" xmlns="http://www.w3.org/2000/svg">
<path d="M11.7935 2.7054L2.71043 11.7738C2.07968 12.4035 2.52567 13.4815 3.41697 13.4815H3.69643C4.24871 13.4815 4.69643 13.9292 4.69643 14.4815V21C4.69643 21.5523 5.14415 22 5.69643 22H9.03572C9.588 22 10.0357 21.5523 10.0357 21V17.0741C10.0357 16.5218 10.4834 16.0741 11.0357 16.0741H12.5H13.9643C14.5166 16.0741 14.9643 16.5218 14.9643 17.0741V21C14.9643 21.5523 15.412 22 15.9643 22H19.3036C19.8559 22 20.3036 21.5523 20.3036 21V14.4815C20.3036 13.9292 20.7513 13.4815 21.3036 13.4815H21.583C22.4743 13.4815 22.9203 12.4035 22.2896 11.7738L13.2065 2.7054C12.8161 2.31563 12.1839 2.31563 11.7935 2.7054Z" stroke="#A8A8A8" stroke-width="1.15"/>
</svg>
