<svg width="62" height="37" viewBox="0 0 62 37" fill="none" xmlns="http://www.w3.org/2000/svg">
<path opacity="0.15" d="M3.13913 35C3.13913 35.5304 6.07825 36.0391 11.3099 36.4142C16.5416 36.7893 23.6373 37 31.036 37C38.4347 37 45.5303 36.7893 50.762 36.4142C55.9937 36.0391 58.9328 35.5304 58.9328 35C58.9328 34.4696 55.9937 33.9609 50.762 33.5858C45.5303 33.2107 38.4347 33 31.036 33C23.6373 33 16.5416 33.2107 11.3099 33.5858C6.07825 33.9609 3.13913 34.4696 3.13913 35Z" fill="black"/>
<path d="M19.4627 25.6592H1.62943V18.4693C1.63191 16.9394 2.03729 15.4354 2.80729 14.0993L7.38444 6.23929C7.81634 5.49276 8.44616 4.87125 9.20896 4.43883C9.97176 4.00641 10.8399 3.77874 11.7239 3.7793H19.4627V25.6592Z" fill="#DCDCD9"/>
<path d="M11.7239 3.7793C10.8399 3.77874 9.97176 4.00641 9.20896 4.43883C8.44616 4.87125 7.81634 5.49276 7.38444 6.23929L2.81762 14.0993C2.04145 15.4334 1.63231 16.9382 1.62943 18.4693V21.7592C1.6313 20.2312 2.04056 18.7294 2.81762 17.3993L7.38444 9.52928C7.8185 8.78531 8.44908 8.16637 9.2116 7.73587C9.97412 7.30537 10.8412 7.07877 11.7239 7.07929H19.4627V3.7793H11.7239Z" fill="white"/>
<path d="M19.4627 25.6592H1.62943V18.4693C1.63191 16.9394 2.03729 15.4354 2.80729 14.0993L7.38444 6.23929C7.81634 5.49276 8.44616 4.87125 9.20896 4.43883C9.97176 4.00641 10.8399 3.77874 11.7239 3.7793H19.4627V25.6592Z" stroke="black" stroke-width="0.5" stroke-linecap="round" stroke-linejoin="round"/>
<path d="M1.0737 24.999H61.0002V30.999H1.0737V24.999Z" fill="#161616"/>
<path d="M59.2568 24.9991H2.80365C2.34484 24.9991 1.90482 25.136 1.58039 25.3797C1.25596 25.6234 1.0737 25.9539 1.0737 26.2985V28.999C1.0737 28.6544 1.25596 28.3238 1.58039 28.0801C1.90482 27.8364 2.34484 27.6995 2.80365 27.6995H59.2568C59.4851 27.6982 59.7115 27.7308 59.9229 27.7955C60.1344 27.8602 60.3267 27.9557 60.4888 28.0765C60.6508 28.1973 60.7795 28.341 60.8673 28.4994C60.955 28.6577 61.0002 28.8275 61.0002 28.999V26.2985C61.0002 26.127 60.955 25.9572 60.8673 25.7989C60.7795 25.6406 60.6508 25.4969 60.4888 25.3761C60.3267 25.2553 60.1344 25.1598 59.9229 25.0951C59.7115 25.0303 59.4851 24.9977 59.2568 24.9991Z" fill="#494949"/>
<path d="M1.0737 24.999H61.0002V30.999H1.0737V24.999Z" stroke="black" stroke-width="0.5" stroke-linecap="round" stroke-linejoin="round"/>
<path d="M21.7689 1H58.9C59.4567 1 59.9905 1.1286 60.3841 1.35752C60.7777 1.58644 60.9988 1.89692 60.9988 2.22065V24.9999H19.6701V2.22065C19.6701 1.89692 19.8913 1.58644 20.2848 1.35752C20.6784 1.1286 21.2122 1 21.7689 1Z" fill="#FF5722"/>
<path d="M58.8806 1H21.7721C21.2147 1 20.68 1.11884 20.2858 1.33038C19.8916 1.54191 19.6701 1.82882 19.6701 2.12798V4.99999C19.6701 4.70083 19.8916 4.41392 20.2858 4.20239C20.68 3.99085 21.2147 3.87201 21.7721 3.87201H58.8806C59.4396 3.872 59.9759 3.99056 60.3727 4.20185C60.7695 4.41314 60.9945 4.70003 60.9988 4.99999V2.12798C60.9945 1.82803 60.7695 1.54114 60.3727 1.32985C59.9759 1.11855 59.4396 0.999991 58.8806 1Z" fill="#FF9B7C"/>
<path d="M21.7689 1H58.9C59.4567 1 59.9905 1.1286 60.3841 1.35752C60.7777 1.58644 60.9988 1.89692 60.9988 2.22065V24.9999H19.6701V2.22065C19.6701 1.89692 19.8913 1.58644 20.2848 1.35752C20.6784 1.1286 21.2122 1 21.7689 1Z" stroke="black" stroke-width="0.5" stroke-linecap="round" stroke-linejoin="round"/>
<path d="M5.66956 30.2796C5.66956 30.8994 5.7957 31.5132 6.04078 32.0858C6.28586 32.6585 6.64508 33.1788 7.09793 33.6171C7.55078 34.0554 8.08839 34.4031 8.68007 34.6403C9.27175 34.8775 9.90591 34.9995 10.5463 34.9995C11.1868 34.9995 11.8209 34.8775 12.4126 34.6403C13.0043 34.4031 13.5419 34.0554 13.9947 33.6171C14.4476 33.1788 14.8068 32.6585 15.0519 32.0858C15.297 31.5132 15.4231 30.8994 15.4231 30.2796C15.4231 29.6597 15.297 29.046 15.0519 28.4733C14.8068 27.9006 14.4476 27.3803 13.9947 26.942C13.5419 26.5037 13.0043 26.1561 12.4126 25.9189C11.8209 25.6817 11.1868 25.5596 10.5463 25.5596C9.90591 25.5596 9.27175 25.6817 8.68007 25.9189C8.08839 26.1561 7.55078 26.5037 7.09793 26.942C6.64508 27.3803 6.28586 27.9006 6.04078 28.4733C5.7957 29.046 5.66956 29.6597 5.66956 30.2796Z" fill="#656769"/>
<path d="M45.2841 30.2796C45.2841 31.5314 45.7979 32.7319 46.7125 33.6171C47.6271 34.5023 48.8675 34.9995 50.1609 34.9995C51.4543 34.9995 52.6947 34.5023 53.6093 33.6171C54.5239 32.7319 55.0377 31.5314 55.0377 30.2796C55.0377 29.0277 54.5239 27.8272 53.6093 26.942C52.6947 26.0569 51.4543 25.5596 50.1609 25.5596C48.8675 25.5596 47.6271 26.0569 46.7125 26.942C45.7979 27.8272 45.2841 29.0277 45.2841 30.2796Z" fill="#656769"/>
<path d="M10.5463 27.4286C11.6714 27.4295 12.7618 27.806 13.6333 28.4946C14.5048 29.1833 15.1042 30.1419 15.3301 31.2086C15.4702 30.5243 15.4518 29.8184 15.2763 29.1418C15.1008 28.4652 14.7724 27.8347 14.315 27.2956C13.8575 26.7565 13.2822 26.3222 12.6306 26.0241C11.979 25.7259 11.2671 25.5713 10.5463 25.5713C9.82555 25.5713 9.11372 25.7259 8.46208 26.0241C7.81043 26.3222 7.23518 26.7565 6.7777 27.2956C6.32023 27.8347 5.99191 28.4652 5.81638 29.1418C5.64084 29.8184 5.62246 30.5243 5.76255 31.2086C5.98851 30.1419 6.58785 29.1833 7.45938 28.4946C8.3309 27.806 9.42124 27.4295 10.5463 27.4286Z" fill="#525252"/>
<path d="M50.1609 27.4286C51.286 27.4295 52.3763 27.806 53.2479 28.4946C54.1194 29.1833 54.7187 30.1419 54.9447 31.2086C55.0848 30.5243 55.0664 29.8184 54.8909 29.1418C54.7153 28.4652 54.387 27.8347 53.9295 27.2956C53.4721 26.7565 52.8968 26.3222 52.2452 26.0241C51.5935 25.7259 50.8817 25.5713 50.1609 25.5713C49.4401 25.5713 48.7283 25.7259 48.0766 26.0241C47.425 26.3222 46.8497 26.7565 46.3923 27.2956C45.9348 27.8347 45.6065 28.4652 45.4309 29.1418C45.2554 29.8184 45.237 30.5243 45.3771 31.2086C45.6031 30.1419 46.2024 29.1833 47.0739 28.4946C47.9455 27.806 49.0358 27.4295 50.1609 27.4286Z" fill="#525252"/>
<path d="M5.66956 30.2796C5.66956 30.8994 5.7957 31.5132 6.04078 32.0858C6.28586 32.6585 6.64508 33.1788 7.09793 33.6171C7.55078 34.0554 8.08839 34.4031 8.68007 34.6403C9.27175 34.8775 9.90591 34.9995 10.5463 34.9995C11.1868 34.9995 11.8209 34.8775 12.4126 34.6403C13.0043 34.4031 13.5419 34.0554 13.9947 33.6171C14.4476 33.1788 14.8068 32.6585 15.0519 32.0858C15.297 31.5132 15.4231 30.8994 15.4231 30.2796C15.4231 29.6597 15.297 29.046 15.0519 28.4733C14.8068 27.9006 14.4476 27.3803 13.9947 26.942C13.5419 26.5037 13.0043 26.1561 12.4126 25.9189C11.8209 25.6817 11.1868 25.5596 10.5463 25.5596C9.90591 25.5596 9.27175 25.6817 8.68007 25.9189C8.08839 26.1561 7.55078 26.5037 7.09793 26.942C6.64508 27.3803 6.28586 27.9006 6.04078 28.4733C5.7957 29.046 5.66956 29.6597 5.66956 30.2796V30.2796Z" stroke="black" stroke-width="0.5" stroke-linecap="round" stroke-linejoin="round"/>
<path d="M45.2841 30.2796C45.2841 31.5314 45.7979 32.7319 46.7125 33.6171C47.6271 34.5023 48.8675 34.9995 50.1609 34.9995C51.4543 34.9995 52.6947 34.5023 53.6093 33.6171C54.5239 32.7319 55.0377 31.5314 55.0377 30.2796C55.0377 29.0277 54.5239 27.8272 53.6093 26.942C52.6947 26.0569 51.4543 25.5596 50.1609 25.5596C48.8675 25.5596 47.6271 26.0569 46.7125 26.942C45.7979 27.8272 45.2841 29.0277 45.2841 30.2796V30.2796Z" stroke="black" stroke-width="0.5" stroke-linecap="round" stroke-linejoin="round"/>
<path d="M1.62943 18.9785H19.4627V25.6485H1.62943V18.9785Z" fill="#161616" stroke="black" stroke-width="0.5" stroke-linecap="round" stroke-linejoin="round"/>
<path d="M14.1211 7.26025H6.78524L2.80736 14.1002C2.6937 14.3002 2.59038 14.5102 2.48706 14.7202H12.1476C12.3447 14.7188 12.5391 14.676 12.7175 14.5949C12.8959 14.5138 13.0539 14.3962 13.1808 14.2502L15.1543 11.9402C15.356 11.7079 15.4659 11.4137 15.4643 11.1102V8.57025C15.4643 8.22454 15.3231 7.89285 15.0715 7.64746C14.8199 7.40207 14.4783 7.26289 14.1211 7.26025Z" fill="#8EDFF8"/>
<path d="M14.1218 7.26025H10.9705L6.83765 14.7202H12.1277C12.3249 14.7195 12.5196 14.677 12.698 14.5958C12.8765 14.5146 13.0345 14.3967 13.1609 14.2502L15.1344 11.9402C15.3361 11.7079 15.4459 11.4137 15.4443 11.1102V8.57025C15.4444 8.22795 15.3061 7.89922 15.0589 7.65439C14.8118 7.40956 14.4754 7.26809 14.1218 7.26025Z" fill="#B4EBFF"/>
<path d="M14.1211 7.26025H6.78524L2.80736 14.1002C2.6937 14.3002 2.59038 14.5102 2.48706 14.7202H12.1476C12.3447 14.7188 12.5391 14.676 12.7175 14.5949C12.8959 14.5138 13.0539 14.3962 13.1808 14.2502L15.1543 11.9402C15.356 11.7079 15.4659 11.4137 15.4643 11.1102V8.57025C15.4643 8.22454 15.3231 7.89285 15.0715 7.64746C14.8199 7.40207 14.4783 7.26289 14.1211 7.26025V7.26025Z" stroke="black" stroke-width="0.5" stroke-linecap="round" stroke-linejoin="round"/>
<path d="M3.98599 20.1374C3.986 19.8989 3.93729 19.6627 3.84266 19.4424C3.74803 19.2222 3.60935 19.0222 3.4346 18.854C3.25985 18.6858 3.05247 18.5527 2.82438 18.4623C2.59629 18.3719 2.352 18.3261 2.10554 18.3274H1V21.9974H2.10554C2.35641 21.9988 2.605 21.9514 2.83654 21.8579C3.06807 21.7645 3.27781 21.6269 3.45326 21.4533C3.62871 21.2798 3.76629 21.0738 3.85782 20.8478C3.94934 20.6217 3.99293 20.3801 3.98599 20.1374Z" fill="#FFD66B" stroke="black" stroke-width="0.5" stroke-linecap="round" stroke-linejoin="round"/>
<path d="M8.94653 30.279C8.94653 30.4825 8.98796 30.6841 9.06844 30.8722C9.14892 31.0602 9.26689 31.2311 9.4156 31.375C9.56431 31.5189 9.74085 31.6331 9.93516 31.711C10.1295 31.7889 10.3377 31.829 10.548 31.829C10.7583 31.829 10.9666 31.7889 11.1609 31.711C11.3552 31.6331 11.5317 31.5189 11.6804 31.375C11.8291 31.2311 11.9471 31.0602 12.0276 30.8722C12.1081 30.6841 12.1495 30.4825 12.1495 30.279C12.1495 30.0755 12.1081 29.8739 12.0276 29.6858C11.9471 29.4978 11.8291 29.3269 11.6804 29.183C11.5317 29.0391 11.3552 28.9249 11.1609 28.847C10.9666 28.7691 10.7583 28.729 10.548 28.729C10.3377 28.729 10.1295 28.7691 9.93516 28.847C9.74085 28.9249 9.56431 29.0391 9.4156 29.183C9.26689 29.3269 9.14892 29.4978 9.06844 29.6858C8.98796 29.8739 8.94653 30.0755 8.94653 30.279Z" fill="#DAEDF7" stroke="black" stroke-width="0.5" stroke-linecap="round" stroke-linejoin="round"/>
<path d="M48.5592 30.279C48.5592 30.6901 48.728 31.0843 49.0283 31.375C49.3286 31.6657 49.736 31.829 50.1607 31.829C50.5855 31.829 50.9928 31.6657 51.2931 31.375C51.5935 31.0843 51.7622 30.6901 51.7622 30.279C51.7622 29.8679 51.5935 29.4737 51.2931 29.183C50.9928 28.8923 50.5855 28.729 50.1607 28.729C49.736 28.729 49.3286 28.8923 49.0283 29.183C48.728 29.4737 48.5592 29.8679 48.5592 30.279Z" fill="#DAEDF7" stroke="black" stroke-width="0.5" stroke-linecap="round" stroke-linejoin="round"/>
<path d="M31.8086 14.9061V9.78369H33.107V14.9061C33.107 15.392 32.9997 15.8059 32.785 16.1477C32.5703 16.4896 32.2777 16.751 31.9072 16.9319C31.5368 17.1129 31.116 17.2034 30.6451 17.2034C30.1638 17.2034 29.7362 17.1246 29.3622 16.9671C28.9918 16.8096 28.7009 16.5683 28.4897 16.2432C28.2785 15.9182 28.1729 15.506 28.1729 15.0066H29.4817C29.4817 15.2948 29.5285 15.5277 29.6219 15.7054C29.7189 15.8796 29.8539 16.007 30.0271 16.0874C30.2037 16.1645 30.4097 16.203 30.6451 16.203C30.8702 16.203 31.0693 16.1544 31.2424 16.0572C31.419 15.9567 31.5575 15.8109 31.6579 15.6199C31.7584 15.4255 31.8086 15.1876 31.8086 14.9061Z" fill="white"/>
<path d="M39.4047 17.1028H37.7894L37.7997 16.1025H39.4047C39.8721 16.1025 40.2634 16.0036 40.5785 15.8059C40.897 15.6082 41.1359 15.325 41.2952 14.9564C41.458 14.5877 41.5393 14.1487 41.5393 13.6393V13.2422C41.5393 12.8467 41.4926 12.4965 41.3991 12.1916C41.3091 11.8866 41.174 11.6302 40.994 11.4225C40.8174 11.2147 40.5992 11.0572 40.3395 10.9499C40.0833 10.8427 39.7873 10.7891 39.4514 10.7891H37.7582V9.78369H39.4514C39.9535 9.78369 40.4123 9.8658 40.8278 10.03C41.2433 10.1909 41.6017 10.4238 41.9029 10.7287C42.2076 11.0337 42.4413 11.399 42.6041 11.8246C42.7668 12.2502 42.8482 12.7261 42.8482 13.2522V13.6393C42.8482 14.1655 42.7668 14.6413 42.6041 15.067C42.4413 15.4926 42.2076 15.8578 41.9029 16.1628C41.5982 16.4644 41.2346 16.6973 40.8122 16.8615C40.3932 17.0224 39.924 17.1028 39.4047 17.1028ZM38.5113 9.78369V17.1028H37.2076V9.78369H38.5113Z" fill="white"/>
<path d="M50.6667 16.1025V17.1028H46.6518V16.1025H50.6667ZM47.0206 9.78369V17.1028H45.7169V9.78369H47.0206ZM50.1421 12.84V13.8253H46.6518V12.84H50.1421ZM50.6407 9.78369V10.7891H46.6518V9.78369H50.6407Z" fill="white"/>
</svg>
