<svg width="24" height="24" viewBox="0 0 24 24" fill="none" xmlns="http://www.w3.org/2000/svg">
<path d="M21.2582 2.73383C20.9308 2.4044 20.5177 2.17324 20.0657 2.06654C19.6137 1.95983 19.1409 1.98182 18.7008 2.13002L3.15361 7.31424C2.81772 7.42609 2.52554 7.64088 2.31848 7.92815C2.11143 8.21543 2 8.56062 2 8.91479C2 9.26897 2.11143 9.61416 2.31848 9.90143C2.52554 10.1887 2.81772 10.4035 3.15361 10.5153L10.708 13.0343C10.767 13.0541 10.8207 13.0873 10.8647 13.1313C10.9087 13.1754 10.9419 13.229 10.9616 13.2881L13.4794 20.846C13.5883 21.1845 13.8027 21.4792 14.0912 21.6869C14.3797 21.8946 14.7271 22.0042 15.0825 21.9999C15.4378 22.0042 15.785 21.8946 16.0735 21.6871C16.362 21.4796 16.5765 21.1852 16.6856 20.847L21.8721 5.29339C22.0194 4.85201 22.0399 4.37816 21.9314 3.92569C21.8229 3.47322 21.5896 3.06028 21.2582 2.73383ZM20.7867 4.93393L15.6002 20.4875C15.5652 20.5989 15.4949 20.6959 15.4 20.764C15.3051 20.832 15.1908 20.8675 15.074 20.8649C14.9575 20.8674 14.8432 20.8319 14.7485 20.7639C14.6538 20.6958 14.5837 20.5989 14.5488 20.4875L12.0385 12.9296C11.9627 12.7036 11.8356 12.4982 11.667 12.3295C11.4985 12.1609 11.2932 12.0337 11.0672 11.9579L3.51195 9.44076C3.40177 9.4038 3.30598 9.33314 3.23811 9.23876C3.17024 9.14439 3.13373 9.03106 3.13373 8.91479C3.13373 8.79853 3.17024 8.6852 3.23811 8.59082C3.30598 8.49644 3.40177 8.42578 3.51195 8.38882L19.0582 3.19989C19.299 3.11955 19.5573 3.10789 19.8043 3.16621C20.0513 3.22453 20.2772 3.35052 20.4567 3.53007C20.6362 3.70961 20.7621 3.93561 20.8204 4.18274C20.8787 4.42986 20.867 4.68835 20.7867 4.92922V4.93393Z" fill="black"/>
</svg>
