<svg width="54" height="56" viewBox="0 0 54 56" fill="none" xmlns="http://www.w3.org/2000/svg">
<path d="M34.9588 6.84882C32.2662 4.12901 28.8516 2.25237 25.1263 1.44488C21.4009 0.637399 17.5236 0.933501 13.9612 2.29753C10.3988 3.66157 7.3032 6.03537 5.04719 9.1331C2.79119 12.2308 1.47095 15.9204 1.24546 19.7575C1.01997 23.5947 1.89884 27.4158 3.77624 30.7607C5.65365 34.1056 8.44953 36.8317 11.8272 38.6108C15.2049 40.3899 19.0204 41.146 22.8143 40.7882C26.6081 40.4304 30.2185 38.9739 33.2108 36.594L36.1964 39.6059L39.4882 36.2851L36.5026 33.2733C39.497 29.4419 40.9937 24.6355 40.7092 19.765C40.4246 14.8946 38.3785 10.2988 34.9588 6.84882Z" fill="#F1F1F1"/>
<path d="M7.01649 10.9808C9.65573 8.31359 12.9911 6.45671 16.635 5.62597C20.2789 4.79522 24.0817 5.02473 27.6014 6.28782C31.1212 7.5509 34.2133 9.7957 36.5185 12.7613C38.8236 15.727 40.2472 19.2916 40.6237 23.0411C40.9134 20.264 40.6212 17.4565 39.766 14.8007C38.9109 12.1449 37.5119 9.70003 35.6598 7.62475C33.8078 5.54948 31.5439 3.8901 29.0152 2.75425C26.4865 1.61839 23.7493 1.03143 20.9812 1.03143C18.2131 1.03143 15.476 1.61839 12.9472 2.75425C10.4185 3.8901 8.15468 5.54948 6.3026 7.62475C4.45052 9.70003 3.05155 12.1449 2.1964 14.8007C1.34126 17.4565 1.04906 20.264 1.33874 23.0411C1.78982 18.479 3.79661 14.2163 7.01649 10.9808Z" fill="#E3E3E3"/>
<path d="M34.9588 6.84882C32.2662 4.12901 28.8516 2.25237 25.1263 1.44488C21.4009 0.637399 17.5236 0.933501 13.9612 2.29753C10.3988 3.66157 7.3032 6.03537 5.04719 9.1331C2.79119 12.2308 1.47095 15.9204 1.24546 19.7575C1.01997 23.5947 1.89884 27.4158 3.77624 30.7607C5.65365 34.1056 8.44953 36.8317 11.8272 38.6108C15.2049 40.3899 19.0204 41.146 22.8143 40.7882C26.6081 40.4304 30.2185 38.9739 33.2108 36.594L36.1964 39.6059L39.4882 36.2851L36.5026 33.2733C39.497 29.4419 40.9937 24.6355 40.7092 19.765C40.4246 14.8946 38.3785 10.2988 34.9588 6.84882V6.84882Z" stroke="#45413C" stroke-width="0.5" stroke-linecap="round" stroke-linejoin="round"/>
<path opacity="0.15" d="M1 53.5088C1 54.1695 3.71566 54.8031 8.54958 55.2703C13.3835 55.7375 19.9397 56 26.7759 56C33.612 56 40.1682 55.7375 45.0022 55.2703C49.8361 54.8031 52.5517 54.1695 52.5517 53.5088C52.5517 52.848 49.8361 52.2144 45.0022 51.7472C40.1682 51.28 33.612 51.0175 26.7759 51.0175C19.9397 51.0175 13.3835 51.28 8.54958 51.7472C3.71566 52.2144 1 52.848 1 53.5088Z" fill="#45413C"/>
<path d="M5.29407 20.9426C5.29407 23.0217 5.69999 25.0803 6.48867 27.0011C7.27734 28.9219 8.43332 30.6671 9.89061 32.1372C11.3479 33.6073 13.0779 34.7734 14.982 35.569C16.886 36.3646 18.9267 36.7741 20.9876 36.7741C23.0485 36.7741 25.0893 36.3646 26.9933 35.569C28.8973 34.7734 30.6274 33.6073 32.0847 32.1372C33.5419 30.6671 34.6979 28.9219 35.4866 27.0011C36.2753 25.0803 36.6812 23.0217 36.6812 20.9426C36.6812 18.8636 36.2753 16.805 35.4866 14.8842C34.6979 12.9634 33.5419 11.2182 32.0847 9.74808C30.6274 8.27799 28.8973 7.11185 26.9933 6.31625C25.0893 5.52064 23.0485 5.11115 20.9876 5.11115C18.9267 5.11115 16.886 5.52064 14.982 6.31625C13.0779 7.11185 11.3479 8.27799 9.89061 9.74808C8.43332 11.2182 7.27734 12.9634 6.48867 14.8842C5.69999 16.805 5.29407 18.8636 5.29407 20.9426Z" fill="#CBE9F3"/>
<path d="M9.88733 9.6934C7.25544 12.3409 5.64134 15.8454 5.33287 19.5819C5.0244 23.3184 6.04163 27.044 8.20314 30.0941L28.9493 7.32511C25.9612 5.53234 22.4673 4.79212 19.0168 5.22082C15.5663 5.64952 12.3549 7.22282 9.88733 9.6934Z" fill="#E7F5FA"/>
<path d="M5.29407 20.9426C5.29407 23.0217 5.69999 25.0803 6.48867 27.0011C7.27734 28.9219 8.43332 30.6671 9.89061 32.1372C11.3479 33.6073 13.0779 34.7734 14.982 35.569C16.886 36.3646 18.9267 36.7741 20.9876 36.7741C23.0485 36.7741 25.0893 36.3646 26.9933 35.569C28.8973 34.7734 30.6274 33.6073 32.0847 32.1372C33.5419 30.6671 34.6979 28.9219 35.4866 27.0011C36.2753 25.0803 36.6812 23.0217 36.6812 20.9426C36.6812 18.8636 36.2753 16.805 35.4866 14.8842C34.6979 12.9634 33.5419 11.2182 32.0847 9.74808C30.6274 8.27799 28.8973 7.11185 26.9933 6.31625C25.0893 5.52064 23.0485 5.11115 20.9876 5.11115C18.9267 5.11115 16.886 5.52064 14.982 6.31625C13.0779 7.11185 11.3479 8.27799 9.89061 9.74808C8.43332 11.2182 7.27734 12.9634 6.48867 14.8842C5.69999 16.805 5.29407 18.8636 5.29407 20.9426V20.9426Z" stroke="#45413C" stroke-width="0.5" stroke-linecap="round" stroke-linejoin="round"/>
<path d="M51.8133 46.2345L40.713 35.0366C40.4935 34.8189 40.1979 34.6968 39.89 34.6968C39.5822 34.6968 39.2866 34.8189 39.0671 35.0366L34.9587 39.1811C34.7428 39.4026 34.6219 39.7007 34.6219 40.0113C34.6219 40.3219 34.7428 40.62 34.9587 40.8415L46.059 52.0394C46.8283 52.7784 47.8534 53.1848 48.9156 53.1717C49.9778 53.1587 50.9929 52.7272 51.744 51.9694C52.4952 51.2117 52.9229 50.1877 52.9358 49.1162C52.9488 48.0447 52.5459 47.0105 51.8133 46.2345Z" fill="#E5332A"/>
<path d="M51.8134 46.2345L40.713 35.0366C40.4935 34.8189 40.1979 34.6968 39.8901 34.6968C39.5822 34.6968 39.2867 34.8189 39.0671 35.0366L36.5153 37.6108C36.6232 37.5015 36.7514 37.4147 36.8927 37.3555C37.0339 37.2963 37.1853 37.2658 37.3383 37.2658C37.4912 37.2658 37.6426 37.2963 37.7839 37.3555C37.9251 37.4147 38.0533 37.5015 38.1612 37.6108L49.2616 48.8087C49.7903 49.3423 50.1621 50.0133 50.3355 50.7472C50.509 51.4812 50.4773 52.2492 50.244 52.9661C50.8535 52.7745 51.4089 52.4391 51.8644 51.9879C52.6019 51.2118 53.0094 50.1757 52.9998 49.1007C52.9903 48.0257 52.5645 46.9971 51.8134 46.2345Z" fill="#CD1D15"/>
<path d="M51.8133 46.2345L40.713 35.0366C40.4935 34.8189 40.1979 34.6968 39.89 34.6968C39.5822 34.6968 39.2866 34.8189 39.0671 35.0366L34.9587 39.1811C34.7428 39.4026 34.6219 39.7007 34.6219 40.0113C34.6219 40.3219 34.7428 40.62 34.9587 40.8415L46.059 52.0394C46.8283 52.7784 47.8534 53.1848 48.9156 53.1717C49.9778 53.1587 50.9929 52.7272 51.744 51.9694C52.4952 51.2117 52.9229 50.1877 52.9358 49.1162C52.9488 48.0447 52.5459 47.0105 51.8133 46.2345V46.2345Z" stroke="#45413C" stroke-width="0.5" stroke-linecap="round" stroke-linejoin="round"/>
</svg>
